<!-- <svg xmlns="http://www.w3.org/2000/svg" viewBox="0 0 841.9 595.3"><g fill="#61DAFB"><path d="M666.3 296.5c0-32.5-40.7-63.3-103.1-82.4 14.4-63.6 8-114.2-20.2-130.4-6.5-3.8-14.1-5.6-22.4-5.6v22.3c4.6 0 8.3.9 11.4 2.6 13.6 7.8 19.5 37.5 14.9 75.7-1.1 9.4-2.9 19.3-5.1 29.4-19.6-4.8-41-8.5-63.5-10.9-13.5-18.5-27.5-35.3-41.6-50 32.6-30.3 63.2-46.9 84-46.9V78c-27.5 0-63.5 19.6-99.9 53.6-36.4-33.8-72.4-53.2-99.9-53.2v22.3c20.7 0 51.4 16.5 84 46.6-14 14.7-28 31.4-41.3 49.9-22.6 2.4-44 6.1-63.6 11-2.3-10-4-19.7-5.2-29-4.7-38.2 1.1-67.9 14.6-75.8 3-1.8 6.9-2.6 11.5-2.6V78.5c-8.4 0-16 1.8-22.6 5.6-28.1 16.2-34.4 66.7-19.9 130.1-62.2 19.2-102.7 49.9-102.7 82.3 0 32.5 40.7 63.3 103.1 82.4-14.4 63.6-8 114.2 20.2 130.4 6.5 3.8 14.1 5.6 22.5 5.6 27.5 0 63.5-19.6 99.9-53.6 36.4 33.8 72.4 53.2 99.9 53.2 8.4 0 16-1.8 22.6-5.6 28.1-16.2 34.4-66.7 19.9-130.1 62-19.1 102.5-49.9 102.5-82.3zm-130.2-66.7c-3.7 12.9-8.3 26.2-13.5 39.5-4.1-8-8.4-16-13.1-24-4.6-8-9.5-15.8-14.4-23.4 14.2 2.1 27.9 4.7 41 7.9zm-45.8 106.5c-7.8 13.5-15.8 26.3-24.1 38.2-14.9 1.3-30 2-45.2 2-15.1 0-30.2-.7-45-1.9-8.3-11.9-16.4-24.6-24.2-38-7.6-13.1-14.5-26.4-20.8-39.8 6.2-13.4 13.2-26.8 20.7-39.9 7.8-13.5 15.8-26.3 24.1-38.2 14.9-1.3 30-2 45.2-2 15.1 0 30.2.7 45 1.9 8.3 11.9 16.4 24.6 24.2 38 7.6 13.1 14.5 26.4 20.8 39.8-6.3 13.4-13.2 26.8-20.7 39.9zm32.3-13c5.4 13.4 10 26.8 13.8 39.8-13.1 3.2-26.9 5.9-41.2 8 4.9-7.7 9.8-15.6 14.4-23.7 4.6-8 8.9-16.1 13-24.1zM421.2 430c-9.3-9.6-18.6-20.3-27.8-32 9 .4 18.2.7 27.5.7 9.4 0 18.7-.2 27.8-.7-9 11.7-18.3 22.4-27.5 32zm-74.4-58.9c-14.2-2.1-27.9-4.7-41-7.9 3.7-12.9 8.3-26.2 13.5-39.5 4.1 8 8.4 16 13.1 24 4.7 8 9.5 15.8 14.4 23.4zM420.7 163c9.3 9.6 18.6 20.3 27.8 32-9-.4-18.2-.7-27.5-.7-9.4 0-18.7.2-27.8.7 9-11.7 18.3-22.4 27.5-32zm-74 58.9c-4.9 7.7-9.8 15.6-14.4 23.7-4.6 8-8.9 16-13 24-5.4-13.4-10-26.8-13.8-39.8 13.1-3.1 26.9-5.8 41.2-7.9zm-90.5 125.2c-35.4-15.1-58.3-34.9-58.3-50.6 0-15.7 22.9-35.6 58.3-50.6 8.6-3.7 18-7 27.7-10.1 5.7 19.6 13.2 40 22.5 60.9-9.2 20.8-16.6 41.1-22.2 60.6-9.9-3.1-19.3-6.5-28-10.2zM310 490c-13.6-7.8-19.5-37.5-14.9-75.7 1.1-9.4 2.9-19.3 5.1-29.4 19.6 4.8 41 8.5 63.5 10.9 13.5 18.5 27.5 35.3 41.6 50-32.6 30.3-63.2 46.9-84 46.9-4.5-.1-8.3-1-11.3-2.7zm237.2-76.2c4.7 38.2-1.1 67.9-14.6 75.8-3 1.8-6.9 2.6-11.5 2.6-20.7 0-51.4-16.5-84-46.6 14-14.7 28-31.4 41.3-49.9 22.6-2.4 44-6.1 63.6-11 2.3 10.1 4.1 19.8 5.2 29.1zm38.5-66.7c-8.6 3.7-18 7-27.7 10.1-5.7-19.6-13.2-40-22.5-60.9 9.2-20.8 16.6-41.1 22.2-60.6 9.9 3.1 19.3 6.5 28.1 10.2 35.4 15.1 58.3 34.9 58.3 50.6-.1 15.7-23 35.6-58.4 50.6zM320.8 78.4z"/><circle cx="420.9" cy="296.5" r="45.7"/><path d="M520.5 78.1z"/></g></svg> -->

<svg height='100px' width='100px'>
				<g>
					<linearGradient id="gradient" x1="0%" y1="0%" x2="90%" y2="50%">
						<stop offset="0%" stopColor='#023e8a' stopOpacity='100%'/>
						<stop offset="35%" stopColor='#023e8a' stopOpacity='100%'/>
						<stop offset="100%" stopColor='#ade8f4' stopOpacity='100%'/>
					</linearGradient>

					<path fillRule='evenodd' clipRule="evenodd" fill={color} d="M57.8,35.5c0.2-0.4-1.6-1.3-1.7-1C55.9,34.9,57.6,35.9,57.8,35.5z   M58.9,34.4c0.3-0.3-0.9-1.8-1.2-1.6C57.3,33,58.6,34.6,58.9,34.4z M83.8,56.8l-11.4-6.6l11.5-6.5c1.1-0.6,1.5-2,0.8-3.2l-9-15.7  c-0.6-1.1-2.1-1.5-3.2-0.8l-11.4,6.5l0.1-13.2c0-1.3-1-2.3-2.3-2.4l-18.2-0.1c-1.3,0-2.4,1.1-2.4,2.4l-0.1,13.1l-11.4-6.6  c-1.1-0.7-2.6-0.3-3.2,0.8L14.5,40c-0.7,1.1-0.3,2.6,0.8,3.2l11.4,6.7l-11.5,6.5c-1.1,0.6-1.5,2.1-0.8,3.2l9,15.7  c0.6,1.2,2.1,1.5,3.2,0.9L38,69.7l-0.1,13.2c0,1.3,1,2.4,2.3,2.4l18.2,0.1c1.3,0,2.4-1,2.4-2.3l0.1-13.2l11.4,6.6  c1.1,0.7,2.6,0.3,3.2-0.8L84.6,60C85.3,58.9,84.9,57.5,83.8,56.8z M59,35.5c-0.7,0.8-2.5,0.5-4.1-0.8c-1.6-1.3-2.4-3-1.7-3.8  c0.7-0.8,2.5-0.5,4.1,0.8C58.9,32.9,59.7,34.6,59,35.5z M48.8,80l-0.1-9.9c0.4,0.2,0.9,0.4,1.3,0.8c0.1,0.2-0.2,7.6-0.2,9.2L48.8,80  z M50.3,47.5l0.3,0.1l-0.4,15.2c-0.1,0-1.2-0.6-1.6-0.8c0-0.1-0.2-12.8-0.2-15.4C49,47,49.7,47.2,50.3,47.5z M54.4,69.2  c1.1,2.7,0.2,5.9-2.4,7.3l0-1.9c0-0.2,0.4-0.6,0.5-0.8c0.1-0.3,0.2-0.6,0.2-0.9c0-0.4,0-0.7,0-1c-0.4-3-3.4-3.8-5.8-5  c-1.3-0.6-2.6-1.3-3.5-2.4c-0.9-1.1-1.4-2.5-1.5-3.9c-0.2-3,1.6-5.4,4.3-6.7l0,3l0,0.5c0,0.1-0.7,0.6-0.7,0.8  c-0.6,0.9-0.7,2.1-0.5,3c0.4,2.1,2.8,2.9,4.5,3.8C51.5,66,53.6,67.2,54.4,69.2z M48.3,38.1l-0.1-11c-1.3-0.6-2.3-1.9-2.2-3.4  c0-2,1.7-3.7,3.7-3.7c2.1,0,3.8,1.7,3.8,3.8c0,1.5-1,2.8-2.3,3.4l-0.3,12.2C49.9,39,49,38.7,48.3,38.1z M56,52  c-0.8,1.3-2,2.2-3.4,2.8l0-2c0-0.5-0.2-1.6,0.2-1.9c0.9-1,1.2-2.8,0.3-3.9c-0.9-1.3-2.9-1.9-4.3-2.4c-2.9-1.2-5.8-2.7-6.6-6  c-0.7-3.2,0.7-6.6,3.7-8l0.1,3.6c0,0.2-0.2,0.4-0.4,0.6c-0.1,0.3-0.3,0.6-0.3,0.9c-0.1,0.5-0.1,0.9-0.1,1.4c0.1,1.5,1,2.5,2.2,3.3  c2.3,1.4,5.1,1.8,7.3,3.6C57.1,45.8,57.6,49.3,56,52z M47,76.7l0,1c-0.5,0-1.1-0.1-1.7-0.1c-0.4,0-0.3-0.1-0.3-0.6  c0-0.3,0.5-0.2,0.7-0.2C46.2,76.8,46.6,76.8,47,76.7z"></path>
				</g>
			</svg>